# Tiled2Unity generated file. Do not modify by hand.
# Wavefront file for 'TestB_mesh_0002.obj'

# Vertices (Count = 336)
v 0 -48 0
v -48 -48 0
v -48 0 0
v 0 0 0
v -48 -48 0
v -96 -48 0
v -96 0 0
v -48 0 0
v -96 -48 0
v -144 -48 0
v -144 0 0
v -96 0 0
v -144 -48 0
v -192 -48 0
v -192 0 0
v -144 0 0
v -192 -48 0
v -240 -48 0
v -240 0 0
v -192 0 0
v -240 -48 0
v -288 -48 0
v -288 0 0
v -240 0 0
v -288 -48 0
v -336 -48 0
v -336 0 0
v -288 0 0
v -336 -48 0
v -384 -48 0
v -384 0 0
v -336 0 0
v -384 -48 0
v -432 -48 0
v -432 0 0
v -384 0 0
v -432 -48 0
v -480 -48 0
v -480 0 0
v -432 0 0
v -480 -48 0
v -528 -48 0
v -528 0 0
v -480 0 0
v -528 -48 0
v -576 -48 0
v -576 0 0
v -528 0 0
v -576 -48 0
v -624 -48 0
v -624 0 0
v -576 0 0
v -624 -48 0
v -672 -48 0
v -672 0 0
v -624 0 0
v -672 -48 0
v -720 -48 0
v -720 0 0
v -672 0 0
v -720 -48 0
v -768 -48 0
v -768 0 0
v -720 0 0
v -768 -48 0
v -816 -48 0
v -816 0 0
v -768 0 0
v 0 -96 0
v -48 -96 0
v -48 -48 0
v 0 -48 0
v -48 -96 0
v -96 -96 0
v -96 -48 0
v -48 -48 0
v -96 -96 0
v -144 -96 0
v -144 -48 0
v -96 -48 0
v -144 -96 0
v -192 -96 0
v -192 -48 0
v -144 -48 0
v -192 -96 0
v -240 -96 0
v -240 -48 0
v -192 -48 0
v -240 -96 0
v -288 -96 0
v -288 -48 0
v -240 -48 0
v -288 -96 0
v -336 -96 0
v -336 -48 0
v -288 -48 0
v -336 -96 0
v -384 -96 0
v -384 -48 0
v -336 -48 0
v -384 -96 0
v -432 -96 0
v -432 -48 0
v -384 -48 0
v -432 -96 0
v -480 -96 0
v -480 -48 0
v -432 -48 0
v -480 -96 0
v -528 -96 0
v -528 -48 0
v -480 -48 0
v -528 -96 0
v -576 -96 0
v -576 -48 0
v -528 -48 0
v -576 -96 0
v -624 -96 0
v -624 -48 0
v -576 -48 0
v -624 -96 0
v -672 -96 0
v -672 -48 0
v -624 -48 0
v -672 -96 0
v -720 -96 0
v -720 -48 0
v -672 -48 0
v -720 -96 0
v -768 -96 0
v -768 -48 0
v -720 -48 0
v -768 -96 0
v -816 -96 0
v -816 -48 0
v -768 -48 0
v 0 -144 0
v -48 -144 0
v -48 -96 0
v 0 -96 0
v -48 -144 0
v -96 -144 0
v -96 -96 0
v -48 -96 0
v -96 -144 0
v -144 -144 0
v -144 -96 0
v -96 -96 0
v -144 -144 0
v -192 -144 0
v -192 -96 0
v -144 -96 0
v -192 -144 0
v -240 -144 0
v -240 -96 0
v -192 -96 0
v -240 -144 0
v -288 -144 0
v -288 -96 0
v -240 -96 0
v -288 -144 0
v -336 -144 0
v -336 -96 0
v -288 -96 0
v -336 -144 0
v -384 -144 0
v -384 -96 0
v -336 -96 0
v -384 -144 0
v -432 -144 0
v -432 -96 0
v -384 -96 0
v -432 -144 0
v -480 -144 0
v -480 -96 0
v -432 -96 0
v -480 -144 0
v -528 -144 0
v -528 -96 0
v -480 -96 0
v -528 -144 0
v -576 -144 0
v -576 -96 0
v -528 -96 0
v -576 -144 0
v -624 -144 0
v -624 -96 0
v -576 -96 0
v -624 -144 0
v -672 -144 0
v -672 -96 0
v -624 -96 0
v -672 -144 0
v -720 -144 0
v -720 -96 0
v -672 -96 0
v -720 -144 0
v -768 -144 0
v -768 -96 0
v -720 -96 0
v -768 -144 0
v -816 -144 0
v -816 -96 0
v -768 -96 0
v 0 -192 0
v -48 -192 0
v -48 -144 0
v 0 -144 0
v -48 -192 0
v -96 -192 0
v -96 -144 0
v -48 -144 0
v -96 -192 0
v -144 -192 0
v -144 -144 0
v -96 -144 0
v -144 -192 0
v -192 -192 0
v -192 -144 0
v -144 -144 0
v -192 -192 0
v -240 -192 0
v -240 -144 0
v -192 -144 0
v -240 -192 0
v -288 -192 0
v -288 -144 0
v -240 -144 0
v -288 -192 0
v -336 -192 0
v -336 -144 0
v -288 -144 0
v -336 -192 0
v -384 -192 0
v -384 -144 0
v -336 -144 0
v -384 -192 0
v -432 -192 0
v -432 -144 0
v -384 -144 0
v -432 -192 0
v -480 -192 0
v -480 -144 0
v -432 -144 0
v -480 -192 0
v -528 -192 0
v -528 -144 0
v -480 -144 0
v -528 -192 0
v -576 -192 0
v -576 -144 0
v -528 -144 0
v -576 -192 0
v -624 -192 0
v -624 -144 0
v -576 -144 0
v -624 -192 0
v -672 -192 0
v -672 -144 0
v -624 -144 0
v -672 -192 0
v -720 -192 0
v -720 -144 0
v -672 -144 0
v -720 -192 0
v -768 -192 0
v -768 -144 0
v -720 -144 0
v -768 -192 0
v -816 -192 0
v -816 -144 0
v -768 -144 0
v -336 -240 0
v -384 -240 0
v -384 -192 0
v -336 -192 0
v -384 -240 0
v -432 -240 0
v -432 -192 0
v -384 -192 0
v -432 -240 0
v -480 -240 0
v -480 -192 0
v -432 -192 0
v -480 -240 0
v -528 -240 0
v -528 -192 0
v -480 -192 0
v -336 -288 0
v -384 -288 0
v -384 -240 0
v -336 -240 0
v -384 -288 0
v -432 -288 0
v -432 -240 0
v -384 -240 0
v -432 -288 0
v -480 -288 0
v -480 -240 0
v -432 -240 0
v -480 -288 0
v -528 -288 0
v -528 -240 0
v -480 -240 0
v -336 -336 0
v -384 -336 0
v -384 -288 0
v -336 -288 0
v -384 -336 0
v -432 -336 0
v -432 -288 0
v -384 -288 0
v -432 -336 0
v -480 -336 0
v -480 -288 0
v -432 -288 0
v -480 -336 0
v -528 -336 0
v -528 -288 0
v -480 -288 0
v -336 -384 0
v -384 -384 0
v -384 -336 0
v -336 -336 0
v -384 -384 0
v -432 -384 0
v -432 -336 0
v -384 -336 0
v -432 -384 0
v -480 -384 0
v -480 -336 0
v -432 -336 0
v -480 -384 0
v -528 -384 0
v -528 -336 0
v -480 -336 0

# Texture cooridinates (Count = 45)
vt 0.122449 0.9375
vt 0.244898 0.9375
vt 0.244898 1
vt 0.122449 1
vt 0 0.9375
vt 0 1
vt 0.3673469 0.9375
vt 0.3673469 1
vt 0.4897959 0.9375
vt 0.4897959 1
vt 0.122449 0.875
vt 0.244898 0.875
vt 0 0.875
vt 0.3673469 0.875
vt 0.4897959 0.875
vt 0.122449 0.8125
vt 0.244898 0.8125
vt 0 0.8125
vt 0.3673469 0.8125
vt 0.4897959 0.8125
vt 0.122449 0.75
vt 0.244898 0.75
vt 0 0.75
vt 0.3673469 0.75
vt 0.4897959 0.75
vt 0 0.6875
vt 0.122449 0.6875
vt 0.244898 0.6875
vt 0.3673469 0.6875
vt 0.4897959 0.6875
vt 0 0.625
vt 0.122449 0.625
vt 0.244898 0.625
vt 0.3673469 0.625
vt 0.4897959 0.625
vt 0 0.5625
vt 0.122449 0.5625
vt 0.244898 0.5625
vt 0.3673469 0.5625
vt 0.4897959 0.5625
vt 0 0.5
vt 0.122449 0.5
vt 0.244898 0.5
vt 0.3673469 0.5
vt 0.4897959 0.5

# Normal
vn 0 0 -1

# Mesh description
g TestB_mesh_0002

# Faces
f 1/1/1 2/2/1 3/3/1 4/4/1
f 5/5/1 6/1/1 7/4/1 8/6/1
f 9/1/1 10/2/1 11/3/1 12/4/1
f 13/5/1 14/1/1 15/4/1 16/6/1
f 17/1/1 18/2/1 19/3/1 20/4/1
f 21/5/1 22/1/1 23/4/1 24/6/1
f 25/1/1 26/2/1 27/3/1 28/4/1
f 29/5/1 30/1/1 31/4/1 32/6/1
f 33/1/1 34/2/1 35/3/1 36/4/1
f 37/2/1 38/7/1 39/8/1 40/3/1
f 41/7/1 42/9/1 43/10/1 44/8/1
f 45/5/1 46/1/1 47/4/1 48/6/1
f 49/1/1 50/2/1 51/3/1 52/4/1
f 53/5/1 54/1/1 55/4/1 56/6/1
f 57/1/1 58/2/1 59/3/1 60/4/1
f 61/5/1 62/1/1 63/4/1 64/6/1
f 65/1/1 66/2/1 67/3/1 68/4/1
f 69/11/1 70/12/1 71/2/1 72/1/1
f 73/13/1 74/11/1 75/1/1 76/5/1
f 77/11/1 78/12/1 79/2/1 80/1/1
f 81/13/1 82/11/1 83/1/1 84/5/1
f 85/11/1 86/12/1 87/2/1 88/1/1
f 89/13/1 90/11/1 91/1/1 92/5/1
f 93/11/1 94/12/1 95/2/1 96/1/1
f 97/13/1 98/11/1 99/1/1 100/5/1
f 101/11/1 102/12/1 103/2/1 104/1/1
f 105/12/1 106/14/1 107/7/1 108/2/1
f 109/14/1 110/15/1 111/9/1 112/7/1
f 113/13/1 114/11/1 115/1/1 116/5/1
f 117/11/1 118/12/1 119/2/1 120/1/1
f 121/13/1 122/11/1 123/1/1 124/5/1
f 125/11/1 126/12/1 127/2/1 128/1/1
f 129/13/1 130/11/1 131/1/1 132/5/1
f 133/11/1 134/12/1 135/2/1 136/1/1
f 137/16/1 138/17/1 139/12/1 140/11/1
f 141/18/1 142/16/1 143/11/1 144/13/1
f 145/16/1 146/17/1 147/12/1 148/11/1
f 149/18/1 150/16/1 151/11/1 152/13/1
f 153/16/1 154/17/1 155/12/1 156/11/1
f 157/18/1 158/16/1 159/11/1 160/13/1
f 161/16/1 162/17/1 163/12/1 164/11/1
f 165/18/1 166/16/1 167/11/1 168/13/1
f 169/16/1 170/17/1 171/12/1 172/11/1
f 173/17/1 174/19/1 175/14/1 176/12/1
f 177/19/1 178/20/1 179/15/1 180/14/1
f 181/18/1 182/16/1 183/11/1 184/13/1
f 185/16/1 186/17/1 187/12/1 188/11/1
f 189/18/1 190/16/1 191/11/1 192/13/1
f 193/16/1 194/17/1 195/12/1 196/11/1
f 197/18/1 198/16/1 199/11/1 200/13/1
f 201/16/1 202/17/1 203/12/1 204/11/1
f 205/21/1 206/22/1 207/17/1 208/16/1
f 209/23/1 210/21/1 211/16/1 212/18/1
f 213/21/1 214/22/1 215/17/1 216/16/1
f 217/23/1 218/21/1 219/16/1 220/18/1
f 221/21/1 222/22/1 223/17/1 224/16/1
f 225/23/1 226/21/1 227/16/1 228/18/1
f 229/21/1 230/22/1 231/17/1 232/16/1
f 233/23/1 234/21/1 235/16/1 236/18/1
f 237/21/1 238/22/1 239/17/1 240/16/1
f 241/22/1 242/24/1 243/19/1 244/17/1
f 245/24/1 246/25/1 247/20/1 248/19/1
f 249/23/1 250/21/1 251/16/1 252/18/1
f 253/21/1 254/22/1 255/17/1 256/16/1
f 257/23/1 258/21/1 259/16/1 260/18/1
f 261/21/1 262/22/1 263/17/1 264/16/1
f 265/23/1 266/21/1 267/16/1 268/18/1
f 269/21/1 270/22/1 271/17/1 272/16/1
f 273/26/1 274/27/1 275/21/1 276/23/1
f 277/27/1 278/28/1 279/22/1 280/21/1
f 281/28/1 282/29/1 283/24/1 284/22/1
f 285/29/1 286/30/1 287/25/1 288/24/1
f 289/31/1 290/32/1 291/27/1 292/26/1
f 293/32/1 294/33/1 295/28/1 296/27/1
f 297/33/1 298/34/1 299/29/1 300/28/1
f 301/34/1 302/35/1 303/30/1 304/29/1
f 305/36/1 306/37/1 307/32/1 308/31/1
f 309/37/1 310/38/1 311/33/1 312/32/1
f 313/38/1 314/39/1 315/34/1 316/33/1
f 317/39/1 318/40/1 319/35/1 320/34/1
f 321/41/1 322/42/1 323/37/1 324/36/1
f 325/42/1 326/43/1 327/38/1 328/37/1
f 329/43/1 330/44/1 331/39/1 332/38/1
f 333/44/1 334/45/1 335/40/1 336/39/1

