# Tiled2Unity generated file. Do not modify by hand.
# Wavefront file for 'TestB_mesh_0004.obj'

# Vertices (Count = 32)
v -336 -192 0
v -384 -192 0
v -384 -144 0
v -336 -144 0
v -384 -192 0
v -432 -192 0
v -432 -144 0
v -384 -144 0
v -432 -192 0
v -480 -192 0
v -480 -144 0
v -432 -144 0
v -480 -192 0
v -528 -192 0
v -528 -144 0
v -480 -144 0
v -336 -240 0
v -384 -240 0
v -384 -192 0
v -336 -192 0
v -384 -240 0
v -432 -240 0
v -432 -192 0
v -384 -192 0
v -432 -240 0
v -480 -240 0
v -480 -192 0
v -432 -192 0
v -480 -240 0
v -528 -240 0
v -528 -192 0
v -480 -192 0

# Texture cooridinates (Count = 15)
vt 0.4897959 0.75
vt 0.6122449 0.75
vt 0.6122449 0.8125
vt 0.4897959 0.8125
vt 0.7346939 0.75
vt 0.7346939 0.8125
vt 0.8571429 0.75
vt 0.8571429 0.8125
vt 0.9795918 0.75
vt 0.9795918 0.8125
vt 0.4897959 0.6875
vt 0.6122449 0.6875
vt 0.7346939 0.6875
vt 0.8571429 0.6875
vt 0.9795918 0.6875

# Normal
vn 0 0 -1

# Mesh description
g TestB_mesh_0004

# Faces
f 1/1/1 2/2/1 3/3/1 4/4/1
f 5/2/1 6/5/1 7/6/1 8/3/1
f 9/5/1 10/7/1 11/8/1 12/6/1
f 13/7/1 14/9/1 15/10/1 16/8/1
f 17/11/1 18/12/1 19/2/1 20/1/1
f 21/12/1 22/13/1 23/5/1 24/2/1
f 25/13/1 26/14/1 27/7/1 28/5/1
f 29/14/1 30/15/1 31/9/1 32/7/1

