# Tiled2Unity generated file. Do not modify by hand.
# Wavefront file for 'TestA_mesh_0002.obj'

# Vertices (Count = 240)
v -96 -96 0
v -144 -96 0
v -144 -48 0
v -96 -48 0
v -144 -96 0
v -192 -96 0
v -192 -48 0
v -144 -48 0
v -192 -96 0
v -240 -96 0
v -240 -48 0
v -192 -48 0
v -96 -144 0
v -144 -144 0
v -144 -96 0
v -96 -96 0
v -144 -144 0
v -192 -144 0
v -192 -96 0
v -144 -96 0
v -192 -144 0
v -240 -144 0
v -240 -96 0
v -192 -96 0
v -576 -144 0
v -624 -144 0
v -624 -96 0
v -576 -96 0
v -624 -144 0
v -672 -144 0
v -672 -96 0
v -624 -96 0
v -672 -144 0
v -720 -144 0
v -720 -96 0
v -672 -96 0
v -96 -192 0
v -144 -192 0
v -144 -144 0
v -96 -144 0
v -144 -192 0
v -192 -192 0
v -192 -144 0
v -144 -144 0
v -192 -192 0
v -240 -192 0
v -240 -144 0
v -192 -144 0
v -576 -192 0
v -624 -192 0
v -624 -144 0
v -576 -144 0
v -624 -192 0
v -672 -192 0
v -672 -144 0
v -624 -144 0
v -672 -192 0
v -720 -192 0
v -720 -144 0
v -672 -144 0
v -96 -240 0
v -144 -240 0
v -144 -192 0
v -96 -192 0
v -144 -240 0
v -192 -240 0
v -192 -192 0
v -144 -192 0
v -192 -240 0
v -240 -240 0
v -240 -192 0
v -192 -192 0
v -576 -240 0
v -624 -240 0
v -624 -192 0
v -576 -192 0
v -624 -240 0
v -672 -240 0
v -672 -192 0
v -624 -192 0
v -672 -240 0
v -720 -240 0
v -720 -192 0
v -672 -192 0
v -576 -288 0
v -624 -288 0
v -624 -240 0
v -576 -240 0
v -624 -288 0
v -672 -288 0
v -672 -240 0
v -624 -240 0
v -672 -288 0
v -720 -288 0
v -720 -240 0
v -672 -240 0
v 0 -384 0
v -48 -384 0
v -48 -336 0
v 0 -336 0
v -48 -384 0
v -96 -384 0
v -96 -336 0
v -48 -336 0
v -96 -384 0
v -144 -384 0
v -144 -336 0
v -96 -336 0
v -720 -384 0
v -768 -384 0
v -768 -336 0
v -720 -336 0
v -768 -384 0
v -816 -384 0
v -816 -336 0
v -768 -336 0
v 0 -432 0
v -48 -432 0
v -48 -384 0
v 0 -384 0
v -48 -432 0
v -96 -432 0
v -96 -384 0
v -48 -384 0
v -96 -432 0
v -144 -432 0
v -144 -384 0
v -96 -384 0
v -384 -432 0
v -432 -432 0
v -432 -384 0
v -384 -384 0
v -720 -432 0
v -768 -432 0
v -768 -384 0
v -720 -384 0
v -768 -432 0
v -816 -432 0
v -816 -384 0
v -768 -384 0
v 0 -480 0
v -48 -480 0
v -48 -432 0
v 0 -432 0
v -48 -480 0
v -96 -480 0
v -96 -432 0
v -48 -432 0
v -96 -480 0
v -144 -480 0
v -144 -432 0
v -96 -432 0
v -720 -480 0
v -768 -480 0
v -768 -432 0
v -720 -432 0
v -768 -480 0
v -816 -480 0
v -816 -432 0
v -768 -432 0
v 0 -528 0
v -48 -528 0
v -48 -480 0
v 0 -480 0
v -48 -528 0
v -96 -528 0
v -96 -480 0
v -48 -480 0
v -96 -528 0
v -144 -528 0
v -144 -480 0
v -96 -480 0
v -480 -528 0
v -528 -528 0
v -528 -480 0
v -480 -480 0
v -528 -528 0
v -576 -528 0
v -576 -480 0
v -528 -480 0
v -576 -528 0
v -624 -528 0
v -624 -480 0
v -576 -480 0
v -720 -528 0
v -768 -528 0
v -768 -480 0
v -720 -480 0
v -768 -528 0
v -816 -528 0
v -816 -480 0
v -768 -480 0
v -192 -576 0
v -240 -576 0
v -240 -528 0
v -192 -528 0
v -240 -576 0
v -288 -576 0
v -288 -528 0
v -240 -528 0
v -288 -576 0
v -336 -576 0
v -336 -528 0
v -288 -528 0
v -480 -576 0
v -528 -576 0
v -528 -528 0
v -480 -528 0
v -528 -576 0
v -576 -576 0
v -576 -528 0
v -528 -528 0
v -576 -576 0
v -624 -576 0
v -624 -528 0
v -576 -528 0
v -192 -624 0
v -240 -624 0
v -240 -576 0
v -192 -576 0
v -240 -624 0
v -288 -624 0
v -288 -576 0
v -240 -576 0
v -288 -624 0
v -336 -624 0
v -336 -576 0
v -288 -576 0
v -480 -624 0
v -528 -624 0
v -528 -576 0
v -480 -576 0
v -528 -624 0
v -576 -624 0
v -576 -576 0
v -528 -576 0
v -576 -624 0
v -624 -624 0
v -624 -576 0
v -576 -576 0

# Texture cooridinates (Count = 50)
vt 0 0.9375
vt 0.0625 0.9375
vt 0.0625 1
vt 0 1
vt 0.125 0.9375
vt 0.125 1
vt 0.1875 0.9375
vt 0.1875 1
vt 0 0.875
vt 0.0625 0.875
vt 0.125 0.875
vt 0.1875 0.875
vt 0 0.1875
vt 0.0625 0.1875
vt 0.0625 0.25
vt 0 0.25
vt 0.125 0.1875
vt 0.125 0.25
vt 0.1875 0.1875
vt 0.1875 0.25
vt 0 0.8125
vt 0.0625 0.8125
vt 0.125 0.8125
vt 0.1875 0.8125
vt 0 0.125
vt 0.0625 0.125
vt 0.125 0.125
vt 0.1875 0.125
vt 0 0.75
vt 0.0625 0.75
vt 0.125 0.75
vt 0.1875 0.75
vt 0 0.0625
vt 0.0625 0.0625
vt 0.125 0.0625
vt 0.1875 0.0625
vt 0 0
vt 0.0625 0
vt 0.125 0
vt 0.1875 0
vt 0.25 0.9375
vt 0.25 1
vt 0.3125 0.9375
vt 0.3125 1
vt 0.25 0.875
vt 0.3125 0.875
vt 0.25 0.8125
vt 0.3125 0.8125
vt 0.25 0.75
vt 0.3125 0.75

# Normal
vn 0 0 -1

# Mesh description
g TestA_mesh_0002

# Faces
f 1/1/1 2/2/1 3/3/1 4/4/1
f 5/2/1 6/5/1 7/6/1 8/3/1
f 9/5/1 10/7/1 11/8/1 12/6/1
f 13/9/1 14/10/1 15/2/1 16/1/1
f 17/10/1 18/11/1 19/5/1 20/2/1
f 21/11/1 22/12/1 23/7/1 24/5/1
f 25/13/1 26/14/1 27/15/1 28/16/1
f 29/14/1 30/17/1 31/18/1 32/15/1
f 33/17/1 34/19/1 35/20/1 36/18/1
f 37/21/1 38/22/1 39/10/1 40/9/1
f 41/22/1 42/23/1 43/11/1 44/10/1
f 45/23/1 46/24/1 47/12/1 48/11/1
f 49/25/1 50/26/1 51/14/1 52/13/1
f 53/26/1 54/27/1 55/17/1 56/14/1
f 57/27/1 58/28/1 59/19/1 60/17/1
f 61/29/1 62/30/1 63/22/1 64/21/1
f 65/30/1 66/31/1 67/23/1 68/22/1
f 69/31/1 70/32/1 71/24/1 72/23/1
f 73/33/1 74/34/1 75/26/1 76/25/1
f 77/34/1 78/35/1 79/27/1 80/26/1
f 81/35/1 82/36/1 83/28/1 84/27/1
f 85/37/1 86/38/1 87/34/1 88/33/1
f 89/38/1 90/39/1 91/35/1 92/34/1
f 93/39/1 94/40/1 95/36/1 96/35/1
f 97/13/1 98/14/1 99/15/1 100/16/1
f 101/14/1 102/17/1 103/18/1 104/15/1
f 105/17/1 106/19/1 107/20/1 108/18/1
f 109/7/1 110/41/1 111/42/1 112/8/1
f 113/41/1 114/43/1 115/44/1 116/42/1
f 117/25/1 118/26/1 119/14/1 120/13/1
f 121/26/1 122/27/1 123/17/1 124/14/1
f 125/27/1 126/28/1 127/19/1 128/17/1
f 129/38/1 130/39/1 131/35/1 132/34/1
f 133/12/1 134/45/1 135/41/1 136/7/1
f 137/45/1 138/46/1 139/43/1 140/41/1
f 141/33/1 142/34/1 143/26/1 144/25/1
f 145/34/1 146/35/1 147/27/1 148/26/1
f 149/35/1 150/36/1 151/28/1 152/27/1
f 153/24/1 154/47/1 155/45/1 156/12/1
f 157/47/1 158/48/1 159/46/1 160/45/1
f 161/37/1 162/38/1 163/34/1 164/33/1
f 165/38/1 166/39/1 167/35/1 168/34/1
f 169/39/1 170/40/1 171/36/1 172/35/1
f 173/1/1 174/2/1 175/3/1 176/4/1
f 177/2/1 178/5/1 179/6/1 180/3/1
f 181/5/1 182/7/1 183/8/1 184/6/1
f 185/32/1 186/49/1 187/47/1 188/24/1
f 189/49/1 190/50/1 191/48/1 192/47/1
f 193/1/1 194/2/1 195/3/1 196/4/1
f 197/2/1 198/5/1 199/6/1 200/3/1
f 201/5/1 202/7/1 203/8/1 204/6/1
f 205/9/1 206/10/1 207/2/1 208/1/1
f 209/10/1 210/11/1 211/5/1 212/2/1
f 213/11/1 214/12/1 215/7/1 216/5/1
f 217/9/1 218/10/1 219/2/1 220/1/1
f 221/10/1 222/11/1 223/5/1 224/2/1
f 225/11/1 226/12/1 227/7/1 228/5/1
f 229/21/1 230/22/1 231/10/1 232/9/1
f 233/22/1 234/23/1 235/11/1 236/10/1
f 237/23/1 238/24/1 239/12/1 240/11/1

